<svg width="12" height="13" viewBox="0 0 12 13" fill="none" xmlns="http://www.w3.org/2000/svg">
<path d="M2.9459 6.12632H4.1459V7.32632H2.9459V6.12632ZM11.3459 3.12632V11.5263C11.3459 12.1863 10.8059 12.7263 10.1459 12.7263H1.7459C1.42764 12.7263 1.12241 12.5999 0.89737 12.3748C0.672327 12.1498 0.545898 11.8446 0.545898 11.5263L0.551898 3.12632C0.551898 2.46632 1.0799 1.92632 1.7459 1.92632H2.3459V0.726318H3.5459V1.92632H8.3459V0.726318H9.5459V1.92632H10.1459C10.8059 1.92632 11.3459 2.46632 11.3459 3.12632ZM1.7459 4.32632H10.1459V3.12632H1.7459V4.32632ZM10.1459 11.5263V5.52632H1.7459V11.5263H10.1459ZM7.7459 7.32632H8.9459V6.12632H7.7459V7.32632ZM5.3459 7.32632H6.5459V6.12632H5.3459V7.32632Z" fill="#B79E9E"/>
</svg>
